<svg xmlns="http://www.w3.org/2000/svg" height="800" width="1200" preserveAspectRatio="xMidYMid" viewBox="-38.2587 -55.8115 331.5754 334.869"><path fill="#B01C33" d="M253.871 210.006l-118.7-205.59a8.815 8.815 0 00-15.278 0L1.187 210.006a8.807 8.807 0 000 8.832 8.822 8.822 0 007.639 4.408h237.409a8.816 8.816 0 007.636-4.408 8.807 8.807 0 000-8.832"/><path fill="#FFF" d="M142.856 163.056c-7.151 9.165-15.201 11.176-22.58 11.176-7.822 0-16.315-2.46-16.315-14.081 0-12.07 7.822-15.425 23.027-15.425h15.868zm58.582 9.326l-28.607-12.524 3.146 8.337-11.66 2.17v-57.6c0-25.03-20.341-29.503-37.329-29.503-18.559 0-36.434 2.234-36.434 2.234v16.986l1.565 1.565s16.986-2.236 31.068-2.236c12.518 0 19.67 5.812 19.67 15.871v10.06h-21.683c-19.897 0-38.886 8.491-38.886 33.752 0 25.025 14.525 31.29 29.948 31.29 20.787 0 30.171-15.646 30.171-15.646h.893l-.444 11.853 1.56 1.558 34.25-6.048-.318 8.908z"/></svg>